<?xml version="1.0" encoding="iso-8859-1"?>
<!-- Generator: Adobe Illustrator 29.1.0, SVG Export Plug-In . SVG Version: 9.03 Build 55587)  -->
<svg version="1.1" id="Layer_1" xmlns="http://www.w3.org/2000/svg" xmlns:xlink="http://www.w3.org/1999/xlink" x="0px" y="0px"
	 viewBox="0 0 236.214 57.722" style="enable-background:new 0 0 236.214 57.722;" xml:space="preserve">
<g>
	<path d="M27.182,6.257c-5.328,0-7.992,1.104-7.992,3.312v40.319h14.112c1.823,0,3.456-0.252,4.896-0.756
		c1.44-0.504,2.688-1.343,3.744-2.52c1.055-1.176,1.908-2.748,2.557-4.717c0.647-1.967,1.091-4.438,1.332-7.416l4.752,0.505
		l-1.729,20.52H1.766v-4.104c4.271,0,6.408-1.106,6.408-3.318V9.574c0-2.212-2.136-3.317-6.408-3.317V2.008h25.416V6.257z"/>
	<path d="M83.702,0.928c3.84,0,7.404,0.48,10.693,1.439c3.287,0.958,6.119,2.528,8.494,4.709c2.377,2.182,4.236,5.046,5.58,8.593
		c1.344,3.548,2.018,7.91,2.018,13.087c0,4.268-0.576,8.114-1.729,11.541c-1.152,3.429-2.881,6.353-5.184,8.773
		c-2.305,2.421-5.209,4.29-8.713,5.609c-3.504,1.317-7.584,1.977-12.24,1.977c-3.791,0-7.32-0.456-10.584-1.366
		c-3.264-0.911-6.084-2.421-8.459-4.53c-2.377-2.109-4.248-4.865-5.617-8.27c-1.367-3.403-2.051-7.598-2.051-12.583
		c0-4.459,0.527-8.474,1.584-12.045c1.055-3.57,2.711-6.615,4.967-9.133c2.256-2.517,5.137-4.445,8.641-5.788
		C74.606,1.6,78.805,0.928,83.702,0.928z M84.063,6.833c-2.979,0-5.545,0.444-7.705,1.332c-2.16,0.889-3.924,2.172-5.292,3.852
		c-1.368,1.681-2.376,3.744-3.024,6.192c-0.647,2.448-0.971,5.232-0.971,8.352c0,4.849,0.359,8.82,1.079,11.916
		c0.72,3.097,1.752,5.544,3.097,7.345c1.342,1.8,2.975,3.049,4.896,3.743c1.918,0.697,4.078,1.044,6.479,1.044
		c3.168,0,5.832-0.468,7.992-1.403c2.16-0.937,3.889-2.304,5.184-4.104c1.297-1.8,2.232-4.031,2.809-6.695s0.863-5.725,0.863-9.181
		c0-4.464-0.371-8.136-1.115-11.016s-1.789-5.159-3.133-6.84c-1.344-1.68-2.963-2.855-4.859-3.528
		C88.465,7.169,86.366,6.833,84.063,6.833z"/>
	<path d="M166.501,19.648l-5.256,0.505c-0.961-4.032-2.808-7.272-5.544-9.721c-2.735-2.447-6.24-3.672-10.512-3.672
		c-3.168,0-5.881,0.553-8.136,1.656c-2.257,1.104-4.104,2.641-5.544,4.607c-1.44,1.969-2.497,4.31-3.168,7.021
		c-0.673,2.712-1.009,5.677-1.009,8.892c0,3.985,0.42,7.333,1.261,10.044c0.839,2.713,2.039,4.909,3.6,6.589
		c1.56,1.681,3.42,2.892,5.58,3.636s4.56,1.116,7.2,1.116c1.872,0,3.659-0.252,5.364-0.757c1.703-0.504,3.179-1.199,4.428-2.088
		c1.247-0.888,2.243-1.919,2.987-3.096c0.744-1.176,1.116-2.436,1.116-3.78v-3.744c0-2.207-2.16-3.312-6.479-3.312V29.44h22.032
		v4.104c-4.32,0-6.48,1.104-6.48,3.312v18.648h-7.272l-1.584-5.328c-0.672,0.816-1.536,1.608-2.592,2.376
		c-1.056,0.769-2.293,1.465-3.708,2.088c-1.416,0.625-3.023,1.116-4.824,1.477c-1.8,0.359-3.779,0.54-5.939,0.54
		c-3.409,0-6.696-0.517-9.864-1.549c-3.168-1.031-5.965-2.663-8.388-4.896c-2.425-2.232-4.356-5.087-5.796-8.568
		c-1.44-3.479-2.16-7.691-2.16-12.636c0-4.896,0.72-9.119,2.16-12.672c1.439-3.552,3.396-6.468,5.868-8.748
		c2.472-2.279,5.375-3.972,8.712-5.076c3.335-1.104,6.876-1.656,10.62-1.656c3.888,0,7.211,0.589,9.972,1.765
		c2.76,1.177,4.835,2.509,6.228,3.996l1.801-4.536h5.327V19.648z"/>
	<path d="M206.893,0.928c3.84,0,7.403,0.48,10.692,1.439c3.287,0.958,6.119,2.528,8.495,4.709c2.376,2.182,4.236,5.046,5.58,8.593
		c1.344,3.548,2.017,7.91,2.017,13.087c0,4.268-0.576,8.114-1.729,11.541c-1.151,3.429-2.88,6.353-5.184,8.773
		s-5.209,4.29-8.712,5.609c-3.505,1.317-7.585,1.977-12.24,1.977c-3.792,0-7.32-0.456-10.584-1.366
		c-3.265-0.911-6.084-2.421-8.46-4.53s-4.248-4.865-5.616-8.27c-1.368-3.403-2.052-7.598-2.052-12.583
		c0-4.459,0.527-8.474,1.584-12.045c1.056-3.57,2.711-6.615,4.968-9.133c2.256-2.517,5.136-4.445,8.641-5.788
		C197.796,1.6,201.997,0.928,206.893,0.928z M207.253,6.833c-2.978,0-5.544,0.444-7.704,1.332c-2.16,0.889-3.924,2.172-5.292,3.852
		c-1.368,1.681-2.376,3.744-3.024,6.192c-0.647,2.448-0.972,5.232-0.972,8.352c0,4.849,0.359,8.82,1.08,11.916
		c0.72,3.097,1.751,5.544,3.096,7.345c1.343,1.8,2.976,3.049,4.896,3.743c1.919,0.697,4.079,1.044,6.479,1.044
		c3.168,0,5.832-0.468,7.992-1.403c2.16-0.937,3.888-2.304,5.184-4.104c1.296-1.8,2.232-4.031,2.809-6.695
		c0.575-2.664,0.863-5.725,0.863-9.181c0-4.464-0.372-8.136-1.115-11.016c-0.745-2.88-1.789-5.159-3.133-6.84
		c-1.344-1.68-2.964-2.855-4.859-3.528C211.657,7.169,209.557,6.833,207.253,6.833z"/>
</g>
<g>
</g>
<g>
</g>
<g>
</g>
<g>
</g>
<g>
</g>
<g>
</g>
</svg>
